# xmcd
#
# Track frame offsets:
#   150
#   39448
#   80801
#   104829
#   132950
#   163568
#   233406
#
# Disc length: 3681 seconds
#
# Revision: 0
# Processed by: cddbd v1.5.1PL2 Copyright (c) Steve Scherf et al.
# Submitted via: GXTranscoder 2.23.2863
#
DISCID=540e5f07
DTITLE=Pony Club - Der wunschbrunnen
DYEAR=2005
DGENRE=Children's Music
TTITLE0=tief im Wald
TTITLE1=Kapitel_2
TTITLE2=Kapitel_3
TTITLE3=Kapitel_4
TTITLE4=Kapitel_5
TTITLE5=Kapitel_6
TTITLE6=Kapitel_7
EXTD=
EXTT0=
EXTT1=
EXTT2=
EXTT3=
EXTT4=
EXTT5=
EXTT6=
PLAYORDER=
